<svg width="225" height="42" viewBox="0 0 2248 420" fill="none" xmlns="http://www.w3.org/2000/svg">
<path d="M97.9924 331.478H23.0476C22.3338 219.306 26.6164 213.591 110.84 213.591C145.814 213.591 149.383 217.163 185.071 260.745C213.621 295.754 214.335 297.183 225.042 297.183C238.603 297.183 238.603 294.325 238.603 241.455H313.548C314.975 355.055 311.407 361.485 225.042 361.485C188.64 361.485 185.785 356.484 154.379 313.616C128.684 278.607 128.684 277.178 111.554 277.178C98.7061 277.178 97.9924 280.036 97.9924 331.478Z" fill="url(#paint0_linear_43_3)"/>
<path d="M97.9924 309.15H23.0476C22.3338 196.979 26.6164 191.263 110.84 191.263C145.814 191.263 149.383 194.836 185.071 238.418C213.621 273.427 214.335 274.856 225.042 274.856C238.603 274.856 238.603 271.998 238.603 219.128H313.548C314.975 332.728 311.407 339.158 225.042 339.158C188.64 339.158 185.785 334.157 154.379 291.289C128.684 256.28 128.684 254.851 111.554 254.851C98.7061 254.851 97.9924 257.709 97.9924 309.15Z" fill="url(#paint1_linear_43_3)"/>
<path d="M97.9924 286.823H23.0476C22.3338 174.652 26.6164 168.936 110.84 168.936C145.814 168.936 149.383 172.509 185.071 216.091C213.621 251.1 214.335 252.529 225.042 252.529C238.603 252.529 238.603 249.671 238.603 196.8H313.548C314.975 310.401 311.407 316.831 225.042 316.831C188.64 316.831 185.785 311.83 154.379 268.962C128.684 233.953 128.684 232.524 111.554 232.524C98.7061 232.524 97.9924 235.382 97.9924 286.823Z" fill="url(#paint2_linear_43_3)"/>
<path d="M97.9924 264.496H23.0476C22.3338 152.325 26.6164 146.609 110.84 146.609C145.814 146.609 149.383 150.181 185.071 193.764C213.621 228.773 214.335 230.202 225.042 230.202C238.603 230.202 238.603 227.344 238.603 174.473H313.548C314.975 288.073 311.407 294.504 225.042 294.504C188.64 294.504 185.785 289.502 154.379 246.634C128.684 211.626 128.684 210.197 111.554 210.197C98.7061 210.197 97.9924 213.055 97.9924 264.496Z" fill="url(#paint3_linear_43_3)"/>
<path d="M97.9924 242.169H23.0476C22.3338 129.998 26.6164 124.282 110.84 124.282C145.814 124.282 149.383 127.855 185.071 171.437C213.621 206.446 214.335 207.875 225.042 207.875C238.603 207.875 238.603 205.017 238.603 152.146H313.548C314.975 265.747 311.407 272.177 225.042 272.177C188.64 272.177 185.785 267.175 154.379 224.308C128.684 189.299 128.684 187.87 111.554 187.87C98.7061 187.87 97.9924 190.728 97.9924 242.169Z" fill="url(#paint4_linear_43_3)"/>
<path d="M97.9924 219.842H23.0476C22.3338 107.671 26.6164 101.955 110.84 101.955C145.814 101.955 149.383 105.527 185.071 149.11C213.621 184.119 214.335 185.548 225.042 185.548C238.603 185.548 238.603 182.69 238.603 129.819H313.548C314.975 243.419 311.407 249.85 225.042 249.85C188.64 249.85 185.785 244.848 154.379 201.98C128.684 166.972 128.684 165.543 111.554 165.543C98.7061 165.543 97.9924 168.4 97.9924 219.842Z" fill="url(#paint5_linear_43_3)"/>
<path d="M97.9924 197.515H23.0476C22.3338 85.3437 26.6164 79.6279 110.84 79.6279C145.814 79.6279 149.383 83.2003 185.071 126.783C213.621 161.792 214.335 163.22 225.042 163.22C238.603 163.22 238.603 160.363 238.603 107.492H313.548C314.975 221.092 311.407 227.522 225.042 227.522C188.64 227.522 185.785 222.521 154.379 179.653C128.684 144.644 128.684 143.215 111.554 143.215C98.7061 143.215 97.9924 146.073 97.9924 197.515Z" fill="url(#paint6_linear_43_3)"/>
<path d="M97.9924 175.188H23.0476C22.3338 63.0168 26.6164 57.301 110.84 57.301C145.814 57.301 149.383 60.8733 185.071 104.456C213.621 139.465 214.335 140.894 225.042 140.894C238.603 140.894 238.603 138.036 238.603 85.1652H313.548C314.975 198.765 311.407 205.196 225.042 205.196C188.64 205.196 185.785 200.194 154.379 157.326C128.684 122.317 128.684 120.889 111.554 120.889C98.7061 120.889 97.9924 123.746 97.9924 175.188Z" fill="url(#paint7_linear_43_3)"/>
<path d="M541.65 275.15H578.05C574.2 328.35 562.65 338.5 508.4 338.5C445.75 338.5 433.5 318.9 433.5 216C433.5 115.2 447.15 93.5 508.4 93.5C561.25 93.5 572.45 104 576.3 158.25H539.55C536.05 131.65 530.8 126.4 508.4 126.4C477.6 126.4 471.65 140.75 471.65 215.3C471.65 290.9 477.6 305.6 508.4 305.6C532.9 305.6 538.5 300.7 541.65 275.15ZM684.587 338.5C622.287 338.5 610.037 323.1 610.037 242.95C610.037 163.15 622.287 148.1 684.587 148.1C747.237 148.1 759.137 163.15 759.137 242.95C759.137 323.1 747.237 338.5 684.587 338.5ZM684.587 305.6C716.787 305.6 723.087 295.45 723.087 242.95C723.087 191.15 716.787 181 684.587 181C652.387 181 646.087 191.15 646.087 242.95C646.087 295.45 652.387 305.6 684.587 305.6ZM801.273 335V151.25H833.123V179.6H834.523C843.273 152.65 851.323 147.75 882.123 147.75C927.273 147.75 936.023 158.95 936.023 218.1V335H899.273V218.1C899.273 186.95 894.723 181 871.973 181C843.273 181 837.673 190.45 837.673 240.15V335H801.273ZM980.26 180.65L989.36 151.25H1021.21V112.4L1056.91 97.7V151.25H1109.41V180.65H1056.56V276.55C1056.56 300.7 1060.76 305.25 1084.21 305.25C1095.41 305.25 1101.01 304.55 1117.11 301.4V334.3C1090.16 337.8 1082.81 338.5 1071.61 338.5C1029.26 338.5 1021.21 328.7 1021.21 277.6V180.65H980.26ZM1269.85 286.35H1304.15C1298.55 330.1 1288.05 338.5 1241.15 338.5C1179.2 338.5 1166.95 323.1 1166.95 242.6C1166.95 162.8 1178.5 147.75 1235.9 147.75C1296.8 147.75 1308.35 165.25 1306.6 259.05H1201.6C1203.7 298.95 1210 306.65 1240.45 306.65C1260.75 306.65 1265.3 303.15 1269.85 286.35ZM1201.95 230H1272.3C1270.9 186.95 1264.95 178.9 1237.3 178.9C1209.3 178.9 1203.35 186.95 1201.95 230ZM1345.23 335L1398.43 242.6L1348.38 151.25H1390.03L1420.48 218.1H1421.18L1451.98 151.25H1493.98L1442.53 242.6L1495.38 335H1453.38L1420.83 268.85H1419.43L1387.23 335H1345.23ZM1531.92 180.65L1541.02 151.25H1572.87V112.4L1608.57 97.7V151.25H1661.07V180.65H1608.22V276.55C1608.22 300.7 1612.42 305.25 1635.87 305.25C1647.07 305.25 1652.67 304.55 1668.77 301.4V334.3C1641.82 337.8 1634.47 338.5 1623.27 338.5C1580.92 338.5 1572.87 328.7 1572.87 277.6V180.65H1531.92ZM1854.76 151.25V335H1822.91V306.3H1821.16C1812.76 333.25 1804.71 338.5 1773.56 338.5C1728.76 338.5 1720.01 327.3 1720.01 267.8V151.25H1756.41V267.8C1756.41 299.3 1761.31 305.25 1784.06 305.25C1812.41 305.25 1818.01 295.8 1818.01 246.1V151.25H1854.76ZM1927.34 335V151.25H1958.14L1953.24 189.05H1954.99C1971.09 154.4 1975.29 150.9 2002.24 150.55C2018.34 150.2 2025.34 150.55 2044.59 152.65V187.3C2029.89 185.2 2024.29 184.5 2014.84 184.5C1971.79 184.5 1963.39 196.75 1963.39 259.75V335H1927.34ZM2189.28 286.35H2223.58C2217.98 330.1 2207.48 338.5 2160.58 338.5C2098.63 338.5 2086.38 323.1 2086.38 242.6C2086.38 162.8 2097.93 147.75 2155.33 147.75C2216.23 147.75 2227.78 165.25 2226.03 259.05H2121.03C2123.13 298.95 2129.43 306.65 2159.88 306.65C2180.18 306.65 2184.73 303.15 2189.28 286.35ZM2121.38 230H2191.73C2190.33 186.95 2184.38 178.9 2156.73 178.9C2128.73 178.9 2122.78 186.95 2121.38 230Z" fill="#282828"/>
<defs>
<linearGradient id="paint0_linear_43_3" x1="-19.0642" y1="261.638" x2="360.121" y2="261.638" gradientUnits="userSpaceOnUse">
<stop stop-color="#FACB0B"/>
<stop offset="1" stop-color="#ECE9DA"/>
</linearGradient>
<linearGradient id="paint1_linear_43_3" x1="-19.0642" y1="239.311" x2="360.121" y2="239.311" gradientUnits="userSpaceOnUse">
<stop stop-color="#F9A31C"/>
<stop offset="1" stop-color="#FACB0B"/>
</linearGradient>
<linearGradient id="paint2_linear_43_3" x1="-19.0642" y1="216.984" x2="360.121" y2="216.984" gradientUnits="userSpaceOnUse">
<stop stop-color="#FD701D"/>
<stop offset="1" stop-color="#F9A31C"/>
</linearGradient>
<linearGradient id="paint3_linear_43_3" x1="-19.0642" y1="194.657" x2="360.121" y2="194.657" gradientUnits="userSpaceOnUse">
<stop stop-color="#EA2810"/>
<stop offset="1" stop-color="#FD701D"/>
</linearGradient>
<linearGradient id="paint4_linear_43_3" x1="-19.0642" y1="172.33" x2="360.121" y2="172.33" gradientUnits="userSpaceOnUse">
<stop stop-color="#E5257B"/>
<stop offset="1" stop-color="#EA2810"/>
</linearGradient>
<linearGradient id="paint5_linear_43_3" x1="-19.0642" y1="150.003" x2="360.121" y2="150.003" gradientUnits="userSpaceOnUse">
<stop stop-color="#B82194"/>
<stop offset="1" stop-color="#E5257B"/>
</linearGradient>
<linearGradient id="paint6_linear_43_3" x1="-19.0642" y1="127.676" x2="360.121" y2="127.676" gradientUnits="userSpaceOnUse">
<stop stop-color="#000D7A"/>
<stop offset="1" stop-color="#B82194"/>
</linearGradient>
<linearGradient id="paint7_linear_43_3" x1="-19.0642" y1="105.349" x2="360.121" y2="105.349" gradientUnits="userSpaceOnUse">
<stop stop-color="#0286A9"/>
<stop offset="1" stop-color="#000D7A"/>
</linearGradient>
</defs>
</svg>
